<?xml version="1.0" encoding="utf-8"?>
<!-- Generator: Adobe Illustrator 16.0.3, SVG Export Plug-In . SVG Version: 6.00 Build 0)  -->
<!DOCTYPE svg PUBLIC "-//W3C//DTD SVG 1.1//EN" "http://www.w3.org/Graphics/SVG/1.1/DTD/svg11.dtd">
<svg version="1.1" id="Capa_1" focusable="false" xmlns="http://www.w3.org/2000/svg" xmlns:xlink="http://www.w3.org/1999/xlink"
	 x="0px" y="0px" width="595.281px" height="841.891px" viewBox="0 0 595.281 841.891" enable-background="new 0 0 595.281 841.891"
	 xml:space="preserve">
<path d="M442.243,302.95c-0.76-3.533-4.254-7.028-7.8-7.787c-20.572-4.412-36.68-4.412-52.716-4.412
	c-65.96,0-105.514,35.271-135.044,81.784h-66.588c-10.446,0.01-22.719,7.587-27.401,16.923l-31.587,63.136
	c-0.976,2.153-1.522,4.476-1.607,6.839c0.003,8.469,6.869,15.333,15.339,15.334h66.329l-14.36,14.357
	c-7.262,7.258-8.303,20.609,0,28.911l32.526,32.525c7.127,7.149,20.544,8.407,28.929,0l14.36-14.355v66.351
	c0.003,8.469,6.869,15.334,15.338,15.335c2.363-0.087,4.686-0.633,6.84-1.607l63.084-31.559
	c9.346-4.661,16.936-16.932,16.936-27.384v-66.729c46.386-29.592,81.809-69.267,81.809-134.878
	C446.688,339.63,446.688,323.527,442.243,302.95z M364.879,398.094c-14.115-0.004-25.554-11.449-25.552-25.564
	c0.004-14.115,11.449-25.555,25.564-25.552c14.112,0.003,25.552,11.446,25.552,25.558
	C390.436,386.65,378.995,398.088,364.879,398.094z"/>
</svg>
